<?xml version="1.0" standalone="no"?>
<!DOCTYPE svg PUBLIC "-//W3C//DTD SVG 20010904//EN"
 "http://www.w3.org/TR/2001/REC-SVG-20010904/DTD/svg10.dtd">
<svg version="1.0" xmlns="http://www.w3.org/2000/svg"
 width="700.000000pt" height="700.000000pt" viewBox="0 0 700.000000 700.000000"
 preserveAspectRatio="xMidYMid meet">
<metadata>
Created by potrace 1.11, written by Peter Selinger 2001-2013
</metadata>
<g transform="translate(0.000000,700.000000) scale(0.100000,-0.100000)"
fill="#000000" stroke="none">
<path d="M4290 6985 c-222 -48 -405 -198 -499 -408 -50 -113 -55 -159 -56
-582 l-1 -390 -235 -2 c-129 -2 -841 -4 -1584 -5 l-1350 -3 -80 -28 c-148 -52
-288 -159 -370 -283 -36 -54 -87 -173 -101 -234 -5 -19 -9 -708 -11 -1530 -3
-1590 -4 -1564 43 -1667 8 -17 14 -35 14 -40 0 -4 22 -42 49 -83 53 -83 125
-159 186 -199 22 -14 42 -28 45 -31 22 -25 180 -80 265 -94 17 -2 517 -5 1113
-5 l1082 -1 0 -467 0 -468 -462 1 c-255 1 -465 -2 -468 -6 -3 -5 -5 -109 -4
-232 l0 -223 2285 0 2284 0 77 27 c203 72 361 219 436 408 55 137 52 -55 49
3085 -1 1595 -6 2911 -10 2925 -64 223 -189 381 -373 474 -151 75 -70 70
-1224 73 -856 1 -1046 -1 -1100 -12z m2100 -472 c57 -26 97 -66 123 -123 20
-44 20 -65 21 -865 1 -451 0 -829 -2 -840 -3 -20 -10 -20 -1155 -18 -634 1
-1158 2 -1164 2 -10 1 -13 175 -13 836 0 751 2 839 16 877 31 79 97 132 183
147 19 3 464 6 990 5 937 -1 957 -1 1001 -21z m144 -4063 c1 -976 -3 -1767 -8
-1795 -8 -47 -40 -103 -76 -133 -8 -7 -35 -22 -59 -34 -43 -20 -58 -20 -1026
-20 -954 0 -984 1 -1027 20 -49 21 -109 88 -127 141 -8 25 -11 501 -11 1803
l0 1768 1167 -2 1167 -3 0 -1745z m-2798 -1448 c0 -329 3 -408 16 -462 9 -36
15 -67 13 -68 -3 -3 -390 -5 -475 -3 l-25 1 2 453 c0 248 1 458 2 465 1 9 55
12 234 12 l232 0 1 -398z"/>
<path d="M4672 1856 c-4 -6 -7 -110 -7 -231 l1 -220 700 -3 701 -2 -1 232 -1
233 -693 1 c-488 1 -694 -2 -700 -10z"/>
</g>
</svg>
